:version 1.10
:name ASF
:units
  mass 1
  length 1
  angle deg
:documentation
  ASF file generated by Kaydara
:root
  axis xyz
  order  tx ty tz rx ry rz
  position 0 0 0
  orientation 0 0 0
:bonedata
  begin
    id 1
    name RightUpLegDummy
    direction -0.65628 -0.754516 0.00165102
    length 4.76918
    axis 0 0 0 xyz
  end
  begin
    id 2
    name RightUpLeg
    direction -0.145584 -0.923362 0.355256
    length 17.9961
    axis -24.7611 -13.1006 1.78531 xyz
    dof rx ry rz
  end
  begin
    id 3
    name RightLeg
    direction 0.263379 0.172355 -0.949171
    length 13.3386
    axis 89.6202 -21.1929 12.3855 xyz
    dof rx ry rz
  end
  begin
    id 4
    name RightFoot
    direction 0.224283 -0.968777 -0.105675
    length 5.86697
    axis 56.995 -39.6905 17.3365 xyz
    dof rx ry rz
  end
  begin
    id 5
    name RightToes
    direction -0.0806345 -0.9037 0.420506
    length 4.75197
    axis 146.825 -39.7828 17.6019 xyz
    dof rx ry rz
  end
  begin
    id 6
    name SpineDummy
    direction -3.39852e-014 1 9.33296e-014
    length 8.13779
    axis 0 0 0 xyz
  end
  begin
    id 7
    name Spine
    direction -0.156609 0.733703 0.661176
    length 7.14978
    axis 41.2365 5.68757 17.0844 xyz
    dof rx ry rz
  end
  begin
    id 8
    name Spine1
    direction 0 0 0
    length 0
    axis 42.8809 47.8308 -3.36039 xyz
    dof rx ry rz
  end
  begin
    id 9
    name HEadDummy
    direction 0.546431 0.701947 0.456819
    length 3.55512
    axis 42.8809 47.8308 -3.36039 xyz
  end
  begin
    id 10
    name HEad
    direction 0.23444 0.828559 0.508457
    length 7.35827
    axis 51.1864 49.2662 27.4903 xyz
    dof rx ry rz
  end
  begin
    id 11
    name LeftShoulder1Dummy
    direction 0.431183 0.475873 -0.766568
    length 2.49352
    axis 42.8809 47.8308 -3.36039 xyz
  end
  begin
    id 12
    name LeftShoulder1
    direction 0.268187 -0.383402 -0.883786
    length 4.48604
    axis -119.517 0.106469 35.1736 xyz
    dof rx ry rz
  end
  begin
    id 13
    name LeftArm
    direction 0.380567 -0.703221 -0.600541
    length 10.1142
    axis -5.41825 36.2925 7.8293 xyz
    dof rx ry rz
  end
  begin
    id 14
    name LeftForeArm
    direction 0.541071 -0.732356 -0.413396
    length 9.39839
    axis 4.65387 33.7604 7.81644 xyz
    dof rx ry rz
  end
  begin
    id 15
    name LeftHand
    direction 0.847511 -0.389379 -0.360707
    length 3.66142
    axis 7.65593 21.1436 -24.6758 xyz
    dof rx ry rz
  end
  begin
    id 16
    name RightShoulderDummy
    direction -0.692546 0.541855 0.476208
    length 2.49352
    axis 42.8809 47.8308 -3.36039 xyz
  end
  begin
    id 17
    name RightShoulder
    direction -0.870808 -0.316653 0.376065
    length 4.48602
    axis 141.571 51.133 -100.254 xyz
    dof rx ry rz
  end
  begin
    id 18
    name RightArm
    direction 0.366897 -0.87275 0.322015
    length 10.1142
    axis 92.3258 71.2036 138.917 xyz
    dof rx ry rz
  end
  begin
    id 19
    name RightForeArm
    direction 0.702487 -0.694568 0.155197
    length 9.39835
    axis 153.863 41.5092 -176.604 xyz
    dof rx ry rz
  end
  begin
    id 20
    name RightHand
    direction 0.79502 -0.601276 0.0800636
    length 3.66142
    axis 154.247 4.59222 142.9 xyz
    dof rx ry rz
  end
  begin
    id 21
    name LeftUpLegDummy
    direction 0.65628 -0.754516 0.00165102
    length 4.76919
    axis 0 0 0 xyz
  end
  begin
    id 22
    name LeftUpLeg
    direction -0.1277 -0.689368 0.713067
    length 17.9961
    axis -48.3385 -17.8675 0.791927 xyz
    dof rx ry rz
  end
  begin
    id 23
    name LeftLeg
    direction 0.109849 -0.991246 -0.0732378
    length 13.3386
    axis -2.05791 -7.30784 1.72042 xyz
    dof rx ry rz
  end
  begin
    id 24
    name LeftFoot
    direction 0.0448355 -0.272614 0.961078
    length 5.86697
    axis -18.7733 -7.89606 10.2113 xyz
    dof rx ry rz
  end
  begin
    id 25
    name LeftToes
    direction -0.18506 0.293668 0.937823
    length 4.75197
    axis 71.2267 -7.89606 10.2113 xyz
    dof rx ry rz
  end
:hierarchy
  begin
    root RightUpLegDummy SpineDummy LeftUpLegDummy
    RightUpLegDummy RightUpLeg
    RightUpLeg RightLeg
    RightLeg RightFoot
    RightFoot RightToes
    SpineDummy Spine
    Spine Spine1
    Spine1 HEadDummy LeftShoulder1Dummy RightShoulderDummy
    HEadDummy HEad
    LeftShoulder1Dummy LeftShoulder1
    LeftShoulder1 LeftArm
    LeftArm LeftForeArm
    LeftForeArm LeftHand
    RightShoulderDummy RightShoulder
    RightShoulder RightArm
    RightArm RightForeArm
    RightForeArm RightHand
    LeftUpLegDummy LeftUpLeg
    LeftUpLeg LeftLeg
    LeftLeg LeftFoot
    LeftFoot LeftToes
  end

:SAMPLES-PER-SECOND 30
:FULLY-SPECIFIED
:DEGREES
742
root  -6.66606 38.8912 59.0052 179.581 -42.1724 177.652
RightUpLeg  23.2862 9.68833 8.67308
RightLeg  -89.7855 -13.5484 7.9957
RightFoot  8.63606 7.94669 -19.6892
RightToes  -1.27222e-014 -6.36111e-015 6.36111e-015
Spine  -44.4963 -15.108 -9.69911
Spine1  9.73043 -12.4122 48.3725
HEad  20.3682 -41.275 -21.6155
LeftShoulder1  6.36111e-015 -1.33558e-015 6.49777e-015
LeftArm  23.4432 7.80008 -35.3312
LeftForeArm  -2.01845 -26.2547 -0.500781
LeftHand  -2.9245 -6.89707 -14.4898
RightShoulder  -4.77083e-015 -6.36111e-015 -3.18055e-015
RightArm  46.2491 -36.7638 -24.7881
RightForeArm  0.137937 -2.50944 6.52695
RightHand  0.987867 -1.53384 -4.98921
LeftUpLeg  25.2195 11.8613 19.2859
LeftLeg  -4.16932 -5.5329 -1.02898
LeftFoot  8.14569 4.6516 -12.4172
LeftToes  1.27222e-014 -5.20697e-012 1.80337e-011
743
root  -7.14499 38.9068 58.6275 179.69 -41.08 177.629
RightUpLeg  25.2783 10.441 8.75761
RightLeg  -91.9739 -12.9743 7.77688
RightFoot  8.46216 8.04975 -19.8747
RightToes  -1.27222e-014 -6.36111e-015 6.36111e-015
Spine  -43.5895 -14.0607 -9.6623
Spine1  9.61285 -11.5796 46.1452
HEad  18.2989 -43.1023 -20.6863
LeftShoulder1  6.36111e-015 -1.33558e-015 6.49777e-015
LeftArm  23.9726 8.56076 -34.3587
LeftForeArm  -1.83393 -26.3597 -0.526913
LeftHand  -2.70248 -6.05651 -14.1399
RightShoulder  -4.77083e-015 -6.36111e-015 -3.18055e-015
RightArm  45.0358 -35.437 -18.5323
RightForeArm  -2.35141 -4.01885 4.07714
RightHand  0.757146 -0.850555 -4.39603
LeftUpLeg  24.0008 10.5146 18.4028
LeftLeg  -11.257 -7.04099 -1.1725
LeftFoot  8.34696 4.34394 -11.5433
LeftToes  1.27222e-014 -5.20697e-012 1.80337e-011
744
root  -7.72798 38.8907 58.2072 179.333 -40.1772 178.299
RightUpLeg  27.6544 10.7754 9.11052
RightLeg  -94.4086 -12.3265 7.25252
RightFoot  8.50173 8.08019 -19.9389
RightToes  -1.27222e-014 -6.36111e-015 6.36111e-015
Spine  -43.1515 -12.9001 -9.33904
Spine1  9.79927 -10.8322 44.3235
HEad  15.9278 -44.986 -19.6559
LeftShoulder1  6.36111e-015 -1.33558e-015 6.49777e-015
LeftArm  24.5773 9.18826 -33.5684
LeftForeArm  -1.92486 -25.1524 -0.693054
LeftHand  -2.50745 -5.3282 -13.8874
RightShoulder  -4.77083e-015 -6.36111e-015 -3.18055e-015
RightArm  44.5349 -33.594 -11.3558
RightForeArm  -5.96803 -7.0592 0.601129
RightHand  0.683015 -0.60407 -4.23585
LeftUpLeg  23.3984 8.40382 17.7969
LeftLeg  -18.1489 -8.92945 -0.923148
LeftFoot  7.11286 4.22628 -11.5959
LeftToes  1.27222e-014 -5.20697e-012 1.80337e-011
745
root  -8.45256 38.8079 57.7461 178.876 -39.1564 179.182
RightUpLeg  29.9342 10.7337 9.04137
RightLeg  -96.3098 -11.8382 5.85974
RightFoot  8.252 7.81055 -19.3779
RightToes  -1.27222e-014 -6.36111e-015 6.36111e-015
Spine  -43.1672 -11.7705 -9.05386
Spine1  10.2381 -10.0796 42.6478
HEad  13.7698 -47.003 -18.9062
LeftShoulder1  6.36111e-015 -1.33558e-015 6.49777e-015
LeftArm  25.2748 9.49246 -33.2479
LeftForeArm  -2.0375 -22.3444 -1.19324
LeftHand  -2.32297 -4.6502 -13.6497
RightShoulder  -4.77083e-015 -6.36111e-015 -3.18055e-015
RightArm  45.0268 -31.7837 -4.67664
RightForeArm  -9.94689 -10.9053 -3.23267
RightHand  0.685485 -0.613737 -4.23902
LeftUpLeg  23.2929 6.61075 17.5035
LeftLeg  -22.9586 -10.6306 -0.380335
LeftFoot  7.71255 4.69884 -12.6826
LeftToes  1.27222e-014 -5.20697e-012 1.80337e-011
746
root  -9.27919 38.6442 57.2461 178.698 -38.0231 179.375
RightUpLeg  31.917 11.1882 8.42645
RightLeg  -96.9901 -11.6806 4.59811
RightFoot  7.61181 7.42257 -18.5242
RightToes  -1.27222e-014 -6.36111e-015 6.36111e-015
Spine  -42.61 -11.5891 -9.8959
Spine1  10.1483 -9.38856 41.6818
HEad  12.0234 -48.9967 -18.4151
LeftShoulder1  6.36111e-015 -1.33558e-015 6.49777e-015
LeftArm  25.2151 10.6023 -32.1212
LeftForeArm  -0.810631 -19.9434 -2.83085
LeftHand  -2.11828 -3.90752 -13.4031
RightShoulder  -4.77083e-015 -6.36111e-015 -3.18055e-015
RightArm  45.9291 -31.1917 -1.52246
RightForeArm  -12.4831 -12.665 -6.07907
RightHand  0.712937 -0.444226 -4.70773
LeftUpLeg  23.2469 5.77164 16.8781
LeftLeg  -23.0182 -11.8841 0.0434912
LeftFoot  10.4305 5.68167 -14.2942
LeftToes  1.27222e-014 -5.20697e-012 1.80337e-011
747
root  -10.1785 38.3938 56.7016 178.526 -37.1169 178.83
RightUpLeg  33.7317 12.8219 8.10731
RightLeg  -95.6962 -11.836 4.8909
RightFoot  6.923 7.05229 -17.6771
RightToes  -1.27222e-014 -6.36111e-015 6.36111e-015
Spine  -41.0123 -12.3353 -11.8266
Spine1  9.2688 -8.77863 41.8777
HEad  10.2523 -50.7057 -17.5425
LeftShoulder1  6.36111e-015 -1.33558e-015 6.49777e-015
LeftArm  24.3114 12.4861 -29.9267
LeftForeArm  2.00681 -18.6966 -5.49715
LeftHand  -1.92094 -3.14413 -13.4803
RightShoulder  -4.77083e-015 -6.36111e-015 -3.18055e-015
RightArm  46.4579 -32.2368 -3.13506
RightForeArm  -13.1554 -11.3504 -7.19379
RightHand  0.8317 -0.180373 -6.02832
LeftUpLeg  23.2141 5.92262 16.0312
LeftLeg  -18.5613 -13.0013 -0.0392015
LeftFoot  11.6552 6.41641 -15.6461
LeftToes  1.27222e-014 -5.20697e-012 1.80337e-011
748
root  -11.1234 38.1314 56.1341 178.21 -36.4039 178.036
RightUpLeg  34.8107 14.4272 7.52152
RightLeg  -91.9756 -12.5495 4.98668
RightFoot  6.79835 6.16576 -15.8511
RightToes  -1.27222e-014 -6.36111e-015 6.36111e-015
Spine  -39.1736 -13.1372 -13.7214
Spine1  8.53007 -8.24531 42.0145
HEad  8.3605 -52.0494 -16.0498
LeftShoulder1  6.36111e-015 -1.33558e-015 6.49777e-015
LeftArm  23.0228 14.0091 -27.4487
LeftForeArm  5.97161 -18.1357 -8.71338
LeftHand  -1.76468 -2.40692 -14.1425
RightShoulder  -4.77083e-015 -6.36111e-015 -3.18055e-015
RightArm  46.6596 -34.0172 -5.71485
RightForeArm  -13.8215 -10.9342 -7.47953
RightHand  1.14174 -0.375605 -7.98808
LeftUpLeg  23.5084 7.22564 15.6786
LeftLeg  -12.7576 -13.6654 -0.467316
LeftFoot  8.99229 6.15975 -16.0449
LeftToes  1.27222e-014 -5.20697e-012 1.80337e-011
749
root  -12.047 37.9861 55.5952 178.202 -35.2711 177.093
RightUpLeg  34.0568 15.6788 5.79623
RightLeg  -85.9778 -13.2997 3.39315
RightFoot  8.0321 4.37617 -12.5565
RightToes  -1.27222e-014 -6.36111e-015 6.36111e-015
Spine  -37.7846 -13.6744 -15.0913
Spine1  8.63819 -7.90002 40.2787
HEad  7.09669 -53.0431 -14.6694
LeftShoulder1  6.36111e-015 -1.33558e-015 6.49777e-015
LeftArm  21.9948 14.2512 -25.6067
LeftForeArm  10.4269 -18.1656 -11.942
LeftHand  -1.65298 -1.71345 -15.1976
RightShoulder  -4.77083e-015 -6.36111e-015 -3.18055e-015
RightArm  46.5998 -36.0311 -7.20675
RightForeArm  -14.8737 -12.3036 -7.17771
RightHand  1.58495 -1.13841 -9.77492
LeftUpLeg  24.2748 9.09191 15.5612
LeftLeg  -8.52884 -13.0804 -0.915364
LeftFoot  4.79296 5.33841 -15.5561
LeftToes  1.27222e-014 -5.20697e-012 1.80337e-011
